<?xml version="1.0"?>
<svg xmlns="http://www.w3.org/2000/svg" width="50" height="50" viewBox="0 0 50 50">
    <path d="M47.042,36.749h-1.528c-0.164,0-0.317,0.08-0.41,0.214c-0.995,1.428-2.178,2.786-3.517,4.037 c-1.336,1.251-2.834,2.355-4.454,3.285c-1.617,0.926-3.355,1.658-5.167,2.177c-1.809,0.516-3.729,0.777-5.705,0.777 c-2.982,0-5.852-0.481-8.53-1.433c-2.666-0.945-5.042-2.373-7.064-4.244c-2.02-1.868-3.643-4.223-4.825-6.999 c-1.185-2.778-1.786-6.051-1.786-9.729c0-3.063,0.567-5.958,1.687-8.604c1.118-2.646,2.69-4.994,4.673-6.978 c1.98-1.98,4.351-3.563,7.045-4.706c2.691-1.141,5.652-1.72,8.8-1.72c2.803,0,5.447,0.447,7.861,1.33 c2.405,0.881,4.505,2.132,6.242,3.717c1.731,1.583,3.109,3.515,4.095,5.742c0.985,2.228,1.484,4.706,1.484,7.366 c0,2.358-0.412,4.586-1.226,6.62c-0.818,2.046-1.853,3.832-3.075,5.311c-1.217,1.474-2.568,2.653-4.017,3.507 c-1.417,0.834-2.784,1.257-4.062,1.257c-0.761,0-1.322-0.149-1.667-0.443c-0.35-0.297-0.554-0.694-0.625-1.216 c-0.08-0.575-0.017-1.27,0.188-2.064c0.214-0.835,0.52-1.74,0.912-2.699l7.369-19.12c0.059-0.153,0.039-0.327-0.055-0.463 s-0.248-0.217-0.412-0.217h-1.395c-0.21,0-0.398,0.132-0.47,0.329l-1.212,3.333c-0.681-1.386-1.745-2.514-3.175-3.36 c-1.754-1.038-3.761-1.564-5.964-1.564c-2.43,0-4.686,0.641-6.705,1.903c-1.995,1.247-3.718,2.866-5.12,4.812 c-1.395,1.935-2.49,4.067-3.255,6.34c-0.766,2.273-1.155,4.505-1.155,6.632c0,1.386,0.246,2.711,0.732,3.937s1.156,2.306,1.99,3.208 c0.838,0.909,1.853,1.641,3.013,2.174c2.545,1.171,5.643,1.001,8.703-0.048c1.36-0.465,2.603-1.314,3.708-2.531 c0.098,0.803,0.439,1.499,1.021,2.08c0.868,0.868,2.025,1.308,3.441,1.308c1.674,0,3.422-0.514,5.194-1.525 c1.749-0.999,3.359-2.378,4.784-4.099c1.419-1.712,2.597-3.734,3.499-6.011c0.905-2.282,1.363-4.768,1.363-7.388 c0-3.109-0.585-5.972-1.738-8.506c-1.152-2.531-2.746-4.71-4.737-6.474c-1.988-1.761-4.344-3.134-7.002-4.081 C32.139,0.979,29.268,0.5,26.261,0.5c-3.325,0-6.516,0.616-9.484,1.83c-2.965,1.213-5.598,2.923-7.827,5.082 c-2.227,2.16-4.006,4.749-5.289,7.696c-1.283,2.948-1.934,6.221-1.934,9.727c0,4.256,0.719,7.989,2.137,11.096 c1.418,3.104,3.303,5.697,5.603,7.704c2.299,2.005,4.949,3.502,7.876,4.447c2.911,0.941,5.911,1.418,8.917,1.418 c2.07,0,4.159-0.285,6.207-0.847c2.04-0.561,4.009-1.368,5.855-2.403c1.838-1.031,3.568-2.307,5.144-3.79 c1.576-1.487,2.923-3.154,4.003-4.954c0.093-0.154,0.095-0.347,0.006-0.503C47.388,36.846,47.222,36.749,47.042,36.749z M35.03,17.971l-4.653,12.059c-0.601,1.545-1.302,2.831-2.084,3.823c-0.784,0.994-1.605,1.785-2.442,2.352 c-0.833,0.562-1.705,0.95-2.59,1.155c-2.05,0.479-4.019,0.427-5.63-0.271c-0.907-0.392-1.7-0.944-2.357-1.644 c-0.661-0.701-1.186-1.53-1.559-2.465c-0.373-0.932-0.562-1.975-0.562-3.102c0-1.799,0.338-3.733,1.004-5.751 c0.667-2.023,1.616-3.924,2.822-5.646c1.199-1.713,2.663-3.155,4.35-4.287c1.658-1.111,3.496-1.675,5.465-1.675 c0.801,0,1.646,0.097,2.514,0.287c0.854,0.188,1.679,0.506,2.45,0.942c0.761,0.433,1.44,1.008,2.019,1.709 C34.319,16.119,34.74,16.964,35.03,17.971z"/>
</svg>
